<svg width="13" height="12" viewBox="0 0 13 12" fill="none" xmlns="http://www.w3.org/2000/svg">
<path d="M12.3125 1.6428C11.9635 2.22614 11.5417 2.72316 11.0469 3.13388C11.0521 3.21721 11.0547 3.34221 11.0547 3.50888C11.0547 4.28269 10.9557 5.05501 10.7578 5.82584C10.5599 6.59667 10.2591 7.33626 9.85547 8.04459C9.45182 8.75292 8.97135 9.37941 8.41406 9.92405C7.85677 10.4687 7.1849 10.9032 6.39844 11.2276C5.61198 11.552 4.77083 11.7142 3.875 11.7142C2.46354 11.7142 1.17188 11.2827 0 10.4196C0.182292 10.4434 0.385417 10.4553 0.609375 10.4553C1.78125 10.4553 2.82552 10.0446 3.74219 9.22316C3.19531 9.21126 2.70573 9.01929 2.27344 8.64727C1.84115 8.27525 1.54427 7.80054 1.38281 7.22316C1.55469 7.25292 1.71354 7.2678 1.85938 7.2678C2.08333 7.2678 2.30469 7.23507 2.52344 7.16959C1.9401 7.03269 1.45703 6.70084 1.07422 6.17405C0.691406 5.64727 0.5 5.03566 0.5 4.33923V4.30352C0.854167 4.52971 1.23438 4.65173 1.64062 4.66959C1.29688 4.40769 1.02344 4.06542 0.820312 3.6428C0.617188 3.22019 0.515625 2.76185 0.515625 2.2678C0.515625 1.74399 0.630208 1.25888 0.859375 0.812448C1.48958 1.69935 2.25651 2.40917 3.16016 2.94191C4.0638 3.47465 5.03125 3.77078 6.0625 3.8303C6.02083 3.60411 6 3.38388 6 3.16959C6 2.37197 6.24609 1.69191 6.73828 1.12941C7.23047 0.566912 7.82552 0.285662 8.52344 0.285662C9.2526 0.285662 9.86719 0.589232 10.3672 1.19638C10.9349 1.07138 11.4688 0.839232 11.9688 0.499948C11.776 1.18447 11.4062 1.71423 10.8594 2.08923C11.3438 2.02971 11.8281 1.8809 12.3125 1.6428Z" fill="white"/>
</svg>
