<svg width="12" height="14" viewBox="0 0 12 14" fill="none" xmlns="http://www.w3.org/2000/svg">
<path d="M10.2027 2.1358C9.08036 0.850087 7.58571 0.142944 5.99732 0.142944C2.71875 0.142944 0.0508929 3.19192 0.0508929 6.93886C0.0508929 8.1358 0.324107 9.30519 0.84375 10.3368L0 13.8572L3.15268 12.9113C4.02054 13.4531 4.99821 13.7378 5.99464 13.7378H5.99732C9.27321 13.7378 12 10.6889 12 6.94192C12 5.12662 11.325 3.42152 10.2027 2.1358ZM5.99732 12.5929C5.10804 12.5929 4.2375 12.3205 3.47946 11.8062L3.3 11.6838L1.43036 12.244L1.92857 10.1593L1.81071 9.94499C1.31518 9.04499 1.05536 8.00723 1.05536 6.93886C1.05536 3.8256 3.27321 1.2909 6 1.2909C7.32054 1.2909 8.56071 1.87866 9.49286 2.94703C10.425 4.01539 10.9982 5.43274 10.9955 6.94192C10.9955 10.0583 8.72143 12.5929 5.99732 12.5929ZM8.70804 8.36233C8.56071 8.27662 7.82946 7.86641 7.69286 7.81131C7.55625 7.75315 7.45714 7.7256 7.35804 7.89703C7.25893 8.06845 6.975 8.44805 6.88661 8.56437C6.80089 8.67764 6.7125 8.69294 6.56518 8.60723C5.69196 8.10825 5.11875 7.71641 4.54286 6.58682C4.39018 6.28682 4.69554 6.30825 4.97946 5.65927C5.02768 5.54601 5.00357 5.44805 4.96607 5.36233C4.92857 5.27662 4.63125 4.4409 4.50804 4.10111C4.3875 3.7705 4.26429 3.81641 4.17321 3.81029C4.0875 3.80417 3.98839 3.80417 3.88929 3.80417C3.79018 3.80417 3.62946 3.84703 3.49286 4.01539C3.35625 4.18682 2.97321 4.59703 2.97321 5.43274C2.97321 6.26845 3.50625 7.07662 3.57857 7.18988C3.65357 7.30315 4.62589 9.01743 6.11786 9.75519C7.06071 10.2205 7.43036 10.2603 7.90179 10.1807C8.18839 10.1317 8.78036 9.7705 8.90357 9.37254C9.02679 8.97458 9.02679 8.63478 8.98929 8.56437C8.95446 8.48784 8.85536 8.44499 8.70804 8.36233Z" fill="white"/>
</svg>
